<svg xmlns="http://www.w3.org/2000/svg" width="1200" height="630" viewBox="0 0 1200 630" role="img" aria-labelledby="title desc">
  <title id="title">3D Studio Foundation commercial source license</title>
  <desc id="desc">Next.js and TypeScript source foundation for a browser-based GLB and glTF studio, offered under a one-product commercial license for one thousand US dollars.</desc>
  <defs>
    <linearGradient id="bg" x1="0" y1="0" x2="1" y2="1">
      <stop offset="0" stop-color="#07111f"/>
      <stop offset="0.55" stop-color="#101c35"/>
      <stop offset="1" stop-color="#221442"/>
    </linearGradient>
    <linearGradient id="accent" x1="0" y1="0" x2="1" y2="0">
      <stop offset="0" stop-color="#5ee7f7"/>
      <stop offset="1" stop-color="#b889ff"/>
    </linearGradient>
    <radialGradient id="glow">
      <stop offset="0" stop-color="#7c5cff" stop-opacity=".52"/>
      <stop offset="1" stop-color="#7c5cff" stop-opacity="0"/>
    </radialGradient>
    <filter id="shadow" x="-20%" y="-20%" width="140%" height="140%">
      <feDropShadow dx="0" dy="18" stdDeviation="20" flood-color="#020611" flood-opacity=".6"/>
    </filter>
  </defs>
  <rect width="1200" height="630" fill="url(#bg)"/>
  <circle cx="1000" cy="130" r="300" fill="url(#glow)"/>
  <circle cx="160" cy="600" r="280" fill="url(#glow)" opacity=".45"/>
  <g opacity=".12" stroke="#9bb6e8">
    <path d="M0 90h1200M0 180h1200M0 270h1200M0 360h1200M0 450h1200M0 540h1200"/>
    <path d="M120 0v630M240 0v630M360 0v630M480 0v630M600 0v630M720 0v630M840 0v630M960 0v630M1080 0v630"/>
  </g>
  <g transform="translate(70 65)">
    <rect x="0" y="0" width="1060" height="500" rx="30" fill="#080d18" fill-opacity=".88" stroke="#6380bd" stroke-opacity=".4" filter="url(#shadow)"/>
    <rect x="0" y="0" width="1060" height="58" rx="30" fill="#121b2e"/>
    <rect y="30" width="1060" height="28" fill="#121b2e"/>
    <circle cx="32" cy="29" r="7" fill="#ff6d7a"/><circle cx="56" cy="29" r="7" fill="#f6bd55"/><circle cx="80" cy="29" r="7" fill="#5bd49b"/>
    <text x="530" y="36" fill="#8293b5" font-family="Arial, Helvetica, sans-serif" font-size="15" text-anchor="middle">verified private source package</text>
    <g transform="translate(55 95)">
      <rect width="468" height="330" rx="22" fill="#0d1526" stroke="#4b638f" stroke-opacity=".55"/>
      <path d="M234 64l104 60v120l-104 60-104-60V124z" fill="none" stroke="url(#accent)" stroke-width="5"/>
      <path d="M234 64v120m104-60L234 184l-104-60m104 60v120" fill="none" stroke="#70daf2" stroke-width="3" opacity=".8"/>
      <circle cx="234" cy="184" r="88" fill="url(#glow)" opacity=".8"/>
      <rect x="32" y="284" width="170" height="20" rx="10" fill="#1d2b47"/>
      <rect x="216" y="284" width="92" height="20" rx="10" fill="#1d2b47"/>
      <rect x="322" y="284" width="114" height="20" rx="10" fill="#1d2b47"/>
    </g>
    <g transform="translate(575 100)" font-family="Arial, Helvetica, sans-serif">
      <text y="0" fill="#89a2d1" font-size="16" font-weight="700" letter-spacing="3">COMMERCIAL SOURCE LICENSE</text>
      <text y="66" fill="#f8fbff" font-size="48" font-weight="800">3D Studio</text>
      <text y="119" fill="url(#accent)" font-size="48" font-weight="800">Foundation</text>
      <text y="165" fill="#b8c6e3" font-size="21">Next.js 16 · React 19 · TypeScript</text>
      <text y="199" fill="#b8c6e3" font-size="21">Browser-local GLB / glTF viewer</text>
      <g transform="translate(0 235)">
        <rect width="185" height="52" rx="26" fill="url(#accent)"/>
        <text x="92.5" y="34" fill="#08111f" font-size="22" font-weight="800" text-anchor="middle">$1,000 USD</text>
        <text x="210" y="22" fill="#f0f4ff" font-size="16" font-weight="700">ONE ENTITY</text>
        <text x="210" y="44" fill="#91a4ca" font-size="15">one commercial end product</text>
      </g>
      <text y="333" fill="#66e3b4" font-size="16" font-weight="700">✓ clean install  ✓ lint  ✓ types  ✓ tests  ✓ build</text>
    </g>
  </g>
</svg>